<?xml version="1.0" encoding="UTF-8"?>
<!-- Generator: Adobe Illustrator 13.0.0, SVG Export Plug-In . SVG Version: 6.00 Build 14948)  -->
<!DOCTYPE svg PUBLIC "-//W3C//DTD SVG 1.0//EN" "http://www.w3.org/TR/2001/REC-SVG-20010904/DTD/svg10.dtd">
<svg version="1.0" id="Capa_1" xmlns="http://www.w3.org/2000/svg" xmlns:xlink="http://www.w3.org/1999/xlink" x="0px" y="0px" width="499.939px" height="499.939px" viewBox="125.004 0.031 499.939 499.939" enable-background="new 125.004 0.031 499.939 499.939" xml:space="preserve">
<g id="Comunidad_Valenciana_copia">
	<path fill="#0072BC" d="M125.004,250.001c0,112.339,74.105,207.363,176.099,238.869V11.132   C199.111,42.638,125.004,137.663,125.004,250.001z"/>
	<path fill="#FFDA44" d="M624.944,250.001c0-138.055-111.915-249.97-249.97-249.97c-25.59,0-50.279,3.854-73.527,10.998v477.943   c23.248,7.145,47.938,10.998,73.527,10.998C513.029,499.971,624.944,388.056,624.944,250.001z"/>
	<path fill="#DA121A" d="M245.91,35.893V464.11c17.159,10.366,35.664,18.729,55.192,24.761V11.132   C281.574,17.164,263.07,25.527,245.91,35.893z"/>
	<path fill="#DA121A" d="M295.314,333.372h315.369c6.257-17.688,10.578-36.289,12.712-55.553H295.314V333.372z"/>
	<path fill="#DA121A" d="M295.314,444.475H532.01c19.589-15.838,36.739-34.567,50.794-55.552h-287.49V444.475L295.314,444.475z"/>
	<path fill="#DA121A" d="M295.314,222.269h328.091c-2.126-19.263-6.439-37.861-12.689-55.55h-315.4L295.314,222.269L295.314,222.269   z"/>
	<path fill="#DA121A" d="M295.314,111.167h287.549c-14.039-20.979-31.173-39.71-50.743-55.551H295.314V111.167z"/>
</g>
</svg>