<?xml version="1.0" encoding="UTF-8"?>
<!-- Generator: Adobe Illustrator 13.0.0, SVG Export Plug-In . SVG Version: 6.00 Build 14948)  -->
<!DOCTYPE svg PUBLIC "-//W3C//DTD SVG 1.0//EN" "http://www.w3.org/TR/2001/REC-SVG-20010904/DTD/svg10.dtd">
<svg version="1.0" id="Capa_1" xmlns="http://www.w3.org/2000/svg" xmlns:xlink="http://www.w3.org/1999/xlink" x="0px" y="0px" width="499.939px" height="499.939px" viewBox="125.004 0.031 499.939 499.939" enable-background="new 125.004 0.031 499.939 499.939" xml:space="preserve">
<g id="Reino_Unido_copia">
	<circle fill="#0052B4" cx="374.974" cy="250.001" r="249.97"/>
	<path fill="#F5F5F5" d="M603.335,148.208c-11.004-24.646-25.874-47.184-43.85-66.84l-117.91,77.251V9.019   c-21.206-5.849-43.536-8.987-66.602-8.987c-23.082,0-45.427,3.145-66.646,9V158.62L190.446,81.386   c-17.972,19.656-32.84,42.195-43.841,66.843l53.729,35.202h-66.351c-5.843,21.196-8.979,43.516-8.979,66.569   c0,23.089,3.145,45.44,9.004,66.665h66.325l-53.696,35.182c11.007,24.641,25.882,47.173,43.859,66.822l117.832-77.191v149.494   c21.22,5.854,43.563,8.999,66.646,8.999c23.067,0,45.398-3.141,66.605-8.988V341.478l117.858,77.208   c17.979-19.649,32.855-42.181,43.864-66.819l-53.728-35.2h66.363c5.859-21.225,9.005-43.576,9.005-66.665   c0-23.054-3.136-45.373-8.979-66.568h-66.395L603.335,148.208z"/>
	<path fill="#D80027" d="M621.74,290.019c2.098-13.031,3.203-26.396,3.203-40.019c0-13.59-1.101-26.921-3.188-39.923H414.931V3.225   c-13.013-2.092-26.355-3.193-39.958-3.193c-13.616,0-26.974,1.105-39.998,3.2v206.847H128.192   c-2.087,13.001-3.188,26.333-3.188,39.923c0,13.623,1.105,26.986,3.203,40.019h206.769v206.752c13.025,2.096,26.382,3.2,39.998,3.2   c13.602,0,26.945-1.104,39.958-3.193v-206.76H621.74z"/>
	<path fill="#D80027" d="M258.651,316.666l-97.323,63.168c4.634,7.608,9.674,14.94,15.068,21.987l131.199-85.155H258.651z"/>
	<path fill="#D80027" d="M462.441,316.666l117.581,76.314c5.078-7.271,9.781-14.817,14.078-22.623l-82.717-53.691H462.441z"/>
	<path fill="#D80027" d="M281.682,183.432l-113.604-73.743c-4.986,7.337-9.583,14.958-13.781,22.825l78.44,50.918H281.682z"/>
	<path fill="#D80027" d="M490.523,183.432l97.914-63.56c-4.645-7.603-9.693-14.931-15.099-21.97l-131.762,85.529H490.523z"/>
</g>
</svg>